<?xml version="1.0" encoding="utf-8"?>
<!-- Generator: Adobe Illustrator 17.0.0, SVG Export Plug-In . SVG Version: 6.00 Build 0)  -->
<!DOCTYPE svg PUBLIC "-//W3C//DTD SVG 1.1//EN" "http://www.w3.org/Graphics/SVG/1.1/DTD/svg11.dtd">
<svg version="1.1" id="Layer_1" xmlns="http://www.w3.org/2000/svg" xmlns:xlink="http://www.w3.org/1999/xlink" x="0px" y="0px"
	 width="265.389px" height="267.529px" viewBox="0 0 265.389 267.529" enable-background="new 0 0 265.389 267.529"
	 xml:space="preserve">
<g>
	<path fill="#BFC1C1" d="M259.719,23.951v-4.845c0-6.627-5.373-12-12-12h-90.443l15.921,45.803L259.719,23.951z"/>
	<polygon fill="#D0D0D0" points="215.817,175.525 259.719,160.831 259.719,23.951 173.197,52.909 	"/>
	<polygon fill="#D0D0D0" points="173.197,52.909 157.276,7.106 21.965,7.106 51.987,93.477 	"/>
	<path fill="#FFFFFF" d="M51.987,93.477l42.621,122.616l121.209-40.568L173.197,52.909L51.987,93.477z M156.45,178.601
		c-19.794,8.184-38.82,4.853-56.792-5.906c-1.241-0.743-2.438-3.566-1.977-4.79c1.848-4.914,4.358-9.579,6.636-14.364
		c6.411,3.256,11.485,6.825,17.118,8.416c5.753,1.625,12.096,1.995,18.105,1.641c5.565-0.327,9.185-4.526,9.332-8.869
		c0.189-5.604-3.684-7.935-8.226-9.223c-4.952-1.404-10.057-2.261-15.059-3.505c-3.385-0.842-6.79-1.718-10.04-2.961
		c-12.488-4.779-17.975-12.386-18.068-24.701c-0.099-13.116,5.882-23.177,17.64-27.519c17.164-6.339,34.039-4.161,50.412,3.397
		c2.673,1.234,3.776,2.997,2.392,5.961c-2.152,4.609-4.139,9.294-6.282,14.141c-4.732-2.066-8.527-4.398-12.642-5.354
		c-5.591-1.299-11.439-2.184-17.154-2.068c-6.145,0.124-10.364,4.475-10.698,9.319c-0.318,4.619,2.594,7.927,9.132,9.54
		c5.324,1.313,10.79,2.039,16.17,3.138c2.439,0.499,4.866,1.143,7.223,1.942c12.324,4.178,18.438,11.385,19.05,22.319
		C173.489,162.863,168.014,173.82,156.45,178.601z"/>
	<path fill="#BFC1C1" d="M246.085,262.604h1.634c6.627,0,12-5.373,12-12v-89.773l-43.902,14.694L246.085,262.604z"/>
	<path fill="#BFC1C1" d="M6.138,245.704v4.9c0,6.627,5.373,12,12,12h92.637l-16.167-46.511L6.138,245.704z"/>
	<polygon fill="#D0D0D0" points="215.817,175.525 94.608,216.093 110.775,262.604 246.085,262.604 	"/>
	<polygon fill="#D0D0D0" points="51.987,93.477 6.138,108.823 6.138,245.704 94.608,216.093 	"/>
	<path fill="#BFC1C1" d="M21.965,7.106h-3.828c-6.627,0-12,5.373-12,12v89.717l45.85-15.346L21.965,7.106z"/>
	<path fill="#D0D0D0" d="M172.722,149.157c-0.612-10.934-6.726-18.141-19.05-22.319c-2.357-0.799-4.784-1.444-7.223-1.942
		c-5.38-1.1-10.846-1.825-16.17-3.138c-6.538-1.613-9.45-4.921-9.132-9.54c0.334-4.844,4.553-9.194,10.698-9.319
		c5.714-0.116,11.563,0.77,17.154,2.068c4.115,0.956,7.91,3.288,12.642,5.354c2.143-4.846,4.13-9.532,6.282-14.141
		c1.384-2.963,0.281-4.727-2.392-5.961c-16.373-7.558-33.248-9.736-50.412-3.397c-11.758,4.342-17.739,14.403-17.64,27.519
		c0.093,12.314,5.58,19.922,18.068,24.701c3.25,1.244,6.655,2.12,10.04,2.961c5.002,1.244,10.106,2.1,15.059,3.505
		c4.542,1.288,8.415,3.619,8.226,9.223c-0.146,4.343-3.766,8.541-9.332,8.869c-6.01,0.354-12.352-0.016-18.105-1.641
		c-5.633-1.591-10.707-5.161-17.118-8.416c-2.278,4.785-4.788,9.45-6.636,14.364c-0.461,1.224,0.737,4.047,1.977,4.79
		c17.973,10.759,36.999,14.089,56.792,5.906C168.014,173.82,173.489,162.863,172.722,149.157z"/>
</g>
</svg>
