<?xml version="1.0" encoding="utf-8"?>
<!-- Generator: Adobe Illustrator 17.0.0, SVG Export Plug-In . SVG Version: 6.00 Build 0)  -->
<!DOCTYPE svg PUBLIC "-//W3C//DTD SVG 1.1//EN" "http://www.w3.org/Graphics/SVG/1.1/DTD/svg11.dtd">
<svg version="1.1" id="Layer_1" xmlns="http://www.w3.org/2000/svg" xmlns:xlink="http://www.w3.org/1999/xlink" x="0px" y="0px"
	 width="489.681px" height="479.55px" viewBox="0 0 489.681 479.55" enable-background="new 0 0 489.681 479.55"
	 xml:space="preserve">
<g>
	<path fill="#D0D0D0" d="M306.232,4.362c55.334,0,110.668,0,166.002,0c-0.568-0.083-1.145-0.14-1.736-0.14H16.614
		c-0.591,0-1.168,0.057-1.736,0.14c29.595,0,118.093,0,166.608,0C223.068,4.362,264.65,4.362,306.232,4.362z"/>
	<path fill="#D0D0D0" d="M4.614,16.222v443.943c0,0.929,0.116,1.829,0.315,2.697c0-141.377,0-397.807,0-449.337
		C4.73,14.394,4.614,15.294,4.614,16.222z"/>
	<path fill="#FFFFFF" d="M480.154,467.269c-2.185,2.965-5.691,4.897-9.656,4.897H355.724c0.101,0.316,0.201,0.632,0.305,0.947
		c41.498,0,82.997,0,124.495,0c0.587,0,1.2,0.11,1.748-0.051c0.239-0.07,0.347-0.694,0.515-1.067
		c-0.697-1.058-1.612-2.014-2.057-3.189C480.537,468.294,480.347,467.78,480.154,467.269z"/>
	<path fill="#FFFFFF" d="M16.614,472.166c-3.779,0-7.145-1.75-9.344-4.48c-0.482,1.285-0.964,2.57-1.446,3.855
		c-0.187,0.498-0.263,1.047-0.391,1.572c92.218,0,184.437,0,276.655,0c-0.106-0.315-0.21-0.631-0.316-0.947H16.614z"/>
	<path fill="#FFFFFF" d="M441.99,365.91c-8.285-22.042-16.48-44.125-24.772-66.164c-8.488-22.559-17.077-45.072-25.564-67.631
		c-8.288-22.03-16.477-44.105-24.759-66.138c-5.158-13.722-10.446-27.383-15.605-41.104c-8.514-22.644-16.952-45.323-25.456-67.972
		C319.52,40.086,313.15,23.296,306.816,6.49c-0.256-0.681-0.392-1.417-0.584-2.128c-41.582,0-83.164,0-124.746,0
		c-2.907,7.915-5.765,15.854-8.73,23.742c-9.253,24.611-18.562,49.195-27.82,73.803c-11.904,31.642-23.759,63.307-35.674,94.944
		c-13.079,34.728-26.213,69.43-39.304,104.151c-13.506,35.821-26.998,71.649-40.479,107.482
		c-7.421,19.725-14.813,39.464-22.208,59.201c2.2,2.73,5.566,4.48,9.344,4.48h265.157c-1.734-5.16-3.419-10.34-5.236-15.463
		c-8.774-24.731-17.624-49.429-26.339-74.185c-0.891-2.532-2.14-3.285-4.466-3.278c-24.976,0.074-49.953,0.048-74.929,0.05
		c-1.164,0-2.327,0-4.172,0c25.78-67.434,51.359-134.338,77.208-201.952c2.121,5.514,3.993,10.327,5.828,15.158
		c9.923,26.116,19.849,52.232,29.751,78.358c10.615,28.007,21.187,56.035,31.815,84.036c7.674,20.217,15.426,40.397,23.111,60.609
		c6.934,18.236,13.826,36.492,20.728,54.742c0.239,0.632,0.447,1.279,0.654,1.926h114.773c3.966,0,7.471-1.932,9.656-4.897
		c-4.407-11.656-8.733-23.351-13.125-35.015C458.698,410.132,450.307,388.038,441.99,365.91z"/>
	<path fill="#D0D0D0" d="M306.816,6.49c6.333,16.806,12.703,33.596,19.017,50.411c8.504,22.649,16.943,45.328,25.456,67.972
		c5.159,13.721,10.447,27.383,15.605,41.104c8.282,22.033,16.471,44.108,24.759,66.138c8.487,22.56,17.076,45.072,25.564,67.631
		c8.292,22.039,16.487,44.122,24.772,66.164c8.318,22.128,16.708,44.222,25.039,66.344c4.392,11.663,8.718,23.358,13.125,35.015
		c1.466-1.99,2.344-4.441,2.344-7.103V16.222c0-6.036-4.461-11.017-10.264-11.86c-55.334,0-110.668,0-166.002,0
		C306.424,5.073,306.56,5.809,306.816,6.49z"/>
	<path fill="#D0D0D0" d="M29.478,408.485c13.481-35.833,26.973-71.661,40.479-107.482c13.091-34.722,26.225-69.424,39.304-104.151
		c11.915-31.637,23.769-63.302,35.674-94.944c9.258-24.608,18.568-49.192,27.82-73.803c2.966-7.888,5.823-15.826,8.73-23.742
		c-48.515,0-137.013,0-166.608,0c-4.909,0.714-8.85,4.389-9.948,9.163c0,51.531,0,307.961,0,449.337
		c0.413,1.795,1.223,3.436,2.34,4.823C14.665,447.949,22.057,428.21,29.478,408.485z"/>
	<path fill="#D0D0D0" d="M281.771,472.166c0.106,0.315,0.21,0.632,0.316,0.947c24.647,0,49.295,0,73.942,0
		c-0.104-0.314-0.204-0.631-0.305-0.947H281.771z"/>
	<path fill="#D0D0D0" d="M334.342,415.498c-7.685-20.212-15.437-40.392-23.111-60.609c-10.628-28.001-21.199-56.029-31.815-84.036
		c-9.903-26.126-19.828-52.241-29.751-78.358c-1.835-4.831-3.707-9.645-5.828-15.158c-25.849,67.614-51.427,134.519-77.208,201.952
		c1.844,0,3.008,0,4.172,0c24.976-0.002,49.953,0.024,74.929-0.05c2.326-0.007,3.574,0.746,4.466,3.278
		c8.715,24.756,17.566,49.454,26.339,74.185c1.817,5.123,3.503,10.304,5.236,15.463h73.953c-0.207-0.647-0.415-1.294-0.654-1.926
		C348.168,451.989,341.276,433.734,334.342,415.498z"/>
</g>
</svg>
