<?xml version="1.0" encoding="utf-8"?>
<!-- Generator: Adobe Illustrator 17.0.0, SVG Export Plug-In . SVG Version: 6.00 Build 0)  -->
<!DOCTYPE svg PUBLIC "-//W3C//DTD SVG 1.1//EN" "http://www.w3.org/Graphics/SVG/1.1/DTD/svg11.dtd">
<svg version="1.1" id="Layer_1" xmlns="http://www.w3.org/2000/svg" xmlns:xlink="http://www.w3.org/1999/xlink" x="0px" y="0px"
	 width="112px" height="115px" viewBox="0 0 112 115" enable-background="new 0 0 112 115" xml:space="preserve">
<g>
	<path fill="#FFFFFF" d="M32,80h49V47H32V80z M65,53h9v9h-9V53z M65,66h9v8h-9V66z M52,53h9v9h-9V53z M52,66h9v8h-9V66z M39,53h9v9
		h-9V53z M39,66h9v8h-9V66z"/>
	<path fill="#FFFFFF" d="M55.817,6.987c-28.569,0-51.73,23.16-51.73,51.73c0,28.569,23.16,51.73,51.73,51.73
		c28.57,0,51.73-23.16,51.73-51.73C107.547,30.147,84.387,6.987,55.817,6.987z M72,28.528c0-1.48,1.02-2.681,2.5-2.681
		s2.5,1.2,2.5,2.681v6.746c0,1.48-1.02,2.681-2.5,2.681s-2.5-1.2-2.5-2.681V28.528z M36,28.516c0-1.48,1.019-2.681,2.5-2.681
		c1.48,0,2.5,1.2,2.5,2.681v6.746c0,1.48-1.02,2.681-2.5,2.681c-1.481,0-2.5-1.2-2.5-2.681V28.516z M87,85H26V33h6v2.165
		c0,3.265,2.735,5.921,6,5.921c3.265,0,6-2.656,6-5.921V33h25v2.177c0,3.265,2.235,5.921,5.5,5.921c3.265,0,5.5-2.656,5.5-5.921V33
		h7V85z"/>
</g>
</svg>
