<?xml version="1.0" encoding="utf-8"?>
<!-- Generator: Adobe Illustrator 17.0.0, SVG Export Plug-In . SVG Version: 6.00 Build 0)  -->
<!DOCTYPE svg PUBLIC "-//W3C//DTD SVG 1.1//EN" "http://www.w3.org/Graphics/SVG/1.1/DTD/svg11.dtd">
<svg version="1.1" id="Layer_1" xmlns="http://www.w3.org/2000/svg" xmlns:xlink="http://www.w3.org/1999/xlink" x="0px" y="0px"
	 width="313.638px" height="480.515px" viewBox="119.044 31.485 313.638 480.515"
	 enable-background="new 119.044 31.485 313.638 480.515" xml:space="preserve">
<path id="location-4-icon" fill="#00D2FF" d="M274.836,37C192.361,37,125.5,103.86,125.5,186.336s65.358,178.325,149.336,322.131
	c83.981-143.804,149.336-239.655,149.336-322.131S357.313,37,274.836,37z M274.834,289.509
	c-56.789,0-102.824-46.036-102.824-102.824c0-56.788,46.035-102.823,102.824-102.823c56.79,0,102.827,46.035,102.827,102.823
	C377.66,243.475,331.624,289.509,274.834,289.509z"/>
<g>
	<path fill="#4F4F4F" d="M190.112,217.327c4.102-2.855,5.291-5.352,4.3-8.623c-0.912-3.009-3.556-4.647-7.73-4.574
		c-0.43-3.232-0.864-6.505-1.323-9.955c3.787-0.964,6.58-3.01,6.332-7.277c-0.212-3.65-2.633-5.582-6.303-6.32
		c0.412-3.316,0.818-6.586,1.241-9.995c3.864,0.115,6.804-1.157,7.858-5.05c0.867-3.202-0.448-5.591-4.391-8.182
		c1.217-3.039,2.463-6.148,3.689-9.212c4.728,0.986,7.236,0.185,8.859-2.684c1.649-2.913,1.021-5.743-2.191-9.15
		c1.975-2.642,3.98-5.323,5.959-7.97c4.193,2.222,6.931,2.108,9.21-0.248c2.345-2.425,2.446-5.197,0.193-9.376
		c2.529-2.012,5.096-4.054,7.771-6.183c2.629,2.857,5.527,4.379,9.136,2.115c2.717-1.705,3.447-4.435,2.359-8.896
		c2.952-1.262,5.948-2.543,8.525-3.645c1.744,1.533,3.014,3.217,4.693,4.012c3.947,1.869,8.396-1.154,8.59-5.745
		c0.069-1.637,0.656-2.142,2.089-2.298c2.501-0.271,4.992-0.648,7.677-1.005c0.901,3.744,2.791,6.631,6.893,6.495
		c3.735-0.124,5.631-2.697,6.345-6.507c3.32,0.455,6.537,0.896,9.686,1.327c0.537,5.147,2.031,7.441,5.106,8.081
		c3.206,0.667,5.502-0.608,7.782-4.572c2.992,1.258,6.039,2.54,9.043,3.804c-0.97,5.001-0.073,7.688,2.96,9.267
		c2.885,1.502,5.398,0.824,8.519-2.456c2.6,2.043,5.225,4.105,7.799,6.128c-2.161,4.601-2,7.239,0.441,9.591
		c2.397,2.31,4.922,2.369,8.984,0.091c1.961,2.603,3.944,5.234,6.01,7.976c-2.791,2.725-4.32,5.742-2.049,9.333
		c2.013,3.184,4.982,3.857,8.613,2.337c1.304,3.207,2.543,6.253,3.83,9.417c-3.43,1.953-5.619,4.486-4.335,8.543
		c1.154,3.647,4.013,4.803,7.762,4.611c0.398,3.35,0.787,6.619,1.185,9.97c-3.824,1.04-6.362,2.994-6.2,7.129
		c0.148,3.777,2.552,5.566,6.188,6.465c-0.383,3.325-0.76,6.596-1.149,9.979c-3.864-0.112-6.861,1.057-7.873,5.02
		c-0.988,3.869,1.01,6.327,4.438,8.086c-1.282,3.188-2.512,6.245-3.804,9.46c-3.729-1.425-6.791-0.797-8.827,2.665
		c-1.702,2.895-1.114,5.171,2.187,9.071c-1.946,2.601-3.921,5.24-6.008,8.03c-3.181-2.259-6.332-2.709-9.143,0.238
		c-2.725,2.858-2.25,6.014-0.12,9.253c-2.683,2.12-5.258,4.156-7.803,6.167c-3.755-3.387-5.934-3.91-8.881-2.239
		c-2.859,1.621-3.714,4.272-2.728,9.077c-2.901,1.251-5.875,2.534-9.011,3.887c-1.767-3.667-4.449-5.665-8.342-4.432
		c-3.46,1.096-4.684,3.961-4.318,7.848c-3.327,0.466-6.537,0.916-9.856,1.381c-0.878-3.976-2.915-6.697-7.006-6.503
		c-3.622,0.171-5.466,2.716-6.224,6.496c-2.94-0.411-5.87-0.776-8.776-1.277c-0.396-0.068-0.905-0.77-0.98-1.242
		c-0.688-4.281-2.112-6.29-5.019-6.889c-3.207-0.661-5.402,0.56-7.788,4.56c-2.99-1.252-6.037-2.529-9.032-3.783
		c0.935-4.902,0.086-7.563-2.774-9.167c-2.912-1.632-5.447-1.01-8.756,2.317c-2.588-2.036-5.208-4.097-7.79-6.128
		c2.236-4.365,2.096-7.2-0.333-9.55c-2.345-2.269-5.101-2.332-9.019-0.067c-1.965-2.6-3.953-5.231-6.039-7.991
		c2.874-2.757,4.233-5.821,1.97-9.49c-1.674-2.716-4.137-3.379-8.609-2.349C192.574,223.466,191.329,220.361,190.112,217.327z
		 M315.372,239.942c-0.081-1.244-0.09-2.093-0.199-2.928c-1.366-10.513-2.741-21.025-4.126-31.535
		c-3.023-22.937-6.073-45.871-9.038-68.817c-0.213-1.651-0.846-2.03-2.326-2.007c-4.436,0.071-8.876,0.122-13.309-0.02
		c-1.876-0.06-2.319,0.749-2.497,2.403c-0.457,4.23-1.063,8.444-1.611,12.664c-1.753,13.506-3.503,27.013-5.262,40.519
		c-1.62,12.431-3.257,24.86-4.875,37.291c-0.525,4.035-1.01,8.075-1.534,12.275c5.216,0,10.14,0,15.21,0
		c1.099-8.535,2.179-16.928,3.253-25.27c2.888,0,5.39,0,7.958,0c0.08,0.379,0.162,0.666,0.2,0.959
		c0.93,7.371,1.815,14.749,2.836,22.107c0.117,0.841,0.956,2.234,1.505,2.256C306.045,240.022,310.544,239.942,315.372,239.942z
		 M266.934,190.236c-0.36-0.141-0.566-0.292-0.773-0.292c-5.658-0.024-11.316-0.078-16.972,0.034
		c-0.496,0.01-1.353,1.099-1.388,1.725c-0.154,2.781,0.067,5.586-0.115,8.364c-0.146,2.232,0.564,3.164,2.793,2.833
		c1.374-0.204,2.11,0.255,2.09,1.883c-0.071,5.812,0.014,11.625-0.052,17.438c-0.028,2.455-1.432,3.829-3.835,4.08
		c-3.182,0.333-4.422-1.076-4.424-5.129c-0.009-22.088-0.01-44.177,0.012-66.265c0.001-1.151,0.088-2.348,0.406-3.441
		c0.6-2.062,1.969-3.251,4.226-3.157c2.637,0.109,4.209,2.096,4.24,5.562c0.041,4.65-0.029,9.301,0.064,13.949
		c0.012,0.627,0.684,1.767,1.076,1.779c4.331,0.128,8.666,0.081,13.525,0.081c-0.276-7.522,0.084-14.86-0.983-21.977
		c-1.092-7.286-5.975-11.889-13.369-13.101c-2.465-0.404-5.029-0.49-7.526-0.339c-7.358,0.443-13.108,5.053-15.086,12.168
		c-0.654,2.352-0.967,4.877-0.975,7.324c-0.072,22.321-0.052,44.642-0.026,66.963c0.002,2.007,0.129,4.026,0.379,6.017
		c0.86,6.823,4.796,11.677,11.357,12.913c3.903,0.736,8.085,0.817,12.024,0.292c6.912-0.922,11.204-5.285,12.771-12.191
		c0.442-1.945,0.633-3.986,0.646-5.985c0.064-9.765,0.032-19.531,0.024-29.296C267.046,191.71,266.972,190.956,266.934,190.236z"/>
	<circle fill="#4F4F4F" cx="292.686" cy="199.286" r="4.845"/>
</g>
</svg>
