<?xml version="1.0" encoding="utf-8"?>
<!-- Generator: Adobe Illustrator 17.0.0, SVG Export Plug-In . SVG Version: 6.00 Build 0)  -->
<!DOCTYPE svg PUBLIC "-//W3C//DTD SVG 1.1//EN" "http://www.w3.org/Graphics/SVG/1.1/DTD/svg11.dtd">
<svg version="1.1" id="Layer_1" xmlns="http://www.w3.org/2000/svg" xmlns:xlink="http://www.w3.org/1999/xlink" x="0px" y="0px"
	 width="396.069px" height="399.818px" viewBox="0 0 396.069 399.818" enable-background="new 0 0 396.069 399.818"
	 xml:space="preserve">
<path fill="#D0D0D0" d="M15.837,263.726c8.937-6.136,11.528-11.504,9.368-18.535c-1.986-6.468-7.748-9.989-16.841-9.832
	c-0.936-6.946-1.883-13.982-2.882-21.398c8.251-2.073,14.335-6.47,13.795-15.642c-0.462-7.845-5.736-11.998-13.733-13.585
	c0.897-7.127,1.782-14.157,2.704-21.484c8.418,0.248,14.824-2.487,17.121-10.854c1.89-6.883-0.975-12.017-9.566-17.587
	c2.652-6.532,5.365-13.215,8.038-19.8c10.3,2.119,15.764,0.398,19.302-5.769c3.592-6.261,2.225-12.345-4.774-19.667
	c4.303-5.678,8.671-11.442,12.982-17.131c9.136,4.776,15.101,4.531,20.066-0.534c5.11-5.213,5.328-11.17,0.42-20.152
	c5.509-4.324,11.102-8.714,16.931-13.289c5.728,6.14,12.042,9.413,19.904,4.547c5.919-3.664,7.51-9.532,5.14-19.121
	c6.431-2.713,12.959-5.466,18.573-7.834c3.799,3.295,6.566,6.914,10.224,8.623c8.599,4.018,18.293-2.481,18.714-12.348
	c0.15-3.519,1.43-4.605,4.551-4.939c5.45-0.583,10.876-1.393,16.725-2.161c1.962,8.048,6.081,14.253,15.018,13.961
	c8.137-0.266,12.269-5.796,13.823-13.987c7.234,0.978,14.241,1.925,21.103,2.853c1.169,11.062,4.425,15.993,11.125,17.369
	c6.985,1.434,11.988-1.307,16.955-9.827c6.518,2.705,13.157,5.46,19.701,8.176c-2.113,10.749-0.16,16.525,6.448,19.919
	c6.285,3.228,11.76,1.772,18.56-5.279c5.665,4.391,11.384,8.824,16.992,13.171c-4.709,9.89-4.357,15.56,0.96,20.615
	c5.222,4.965,10.724,5.092,19.573,0.196c4.273,5.594,8.592,11.249,13.094,17.143c-6.08,5.857-9.412,12.343-4.465,20.061
	c4.386,6.843,10.854,8.291,18.764,5.024c2.842,6.894,5.541,13.441,8.345,20.241c-7.472,4.198-12.242,9.643-9.445,18.363
	c2.515,7.839,8.744,10.323,16.91,9.912c0.867,7.2,1.714,14.226,2.581,21.43c-8.332,2.236-13.861,6.436-13.508,15.324
	c0.322,8.119,5.561,11.964,13.481,13.896c-0.834,7.147-1.655,14.177-2.504,21.448c-8.419-0.241-14.947,2.272-17.153,10.791
	c-2.153,8.317,2.201,13.599,9.67,17.381c-2.793,6.853-5.472,13.424-8.288,20.333c-8.125-3.062-14.796-1.713-19.231,5.729
	c-3.708,6.223-2.428,11.114,4.765,19.497c-4.24,5.591-8.543,11.264-13.09,17.259c-6.93-4.856-13.796-5.822-19.92,0.512
	c-5.938,6.142-4.901,12.926-0.262,19.888c-5.845,4.557-11.456,8.932-17.001,13.255c-8.18-7.279-12.929-8.404-19.348-4.813
	c-6.228,3.484-8.092,9.182-5.944,19.51c-6.321,2.689-12.8,5.446-19.633,8.354c-3.849-7.881-9.694-12.176-18.174-9.526
	c-7.538,2.356-10.204,8.513-9.408,16.869c-7.248,1.002-14.242,1.969-21.473,2.969c-1.913-8.547-6.35-14.394-15.264-13.978
	c-7.891,0.368-11.909,5.838-13.561,13.963c-6.405-0.883-12.788-1.669-19.121-2.745c-0.863-0.147-1.971-1.656-2.136-2.67
	c-1.498-9.202-4.601-13.52-10.935-14.807c-6.988-1.42-11.769,1.204-16.968,9.802c-6.515-2.692-13.153-5.436-19.678-8.132
	c2.037-10.536,0.188-16.257-6.044-19.704c-6.344-3.508-11.868-2.17-19.076,4.98c-5.638-4.376-11.347-8.806-16.971-13.171
	c4.872-9.383,4.567-15.476-0.726-20.528c-5.108-4.876-11.113-5.012-19.649-0.145c-4.281-5.589-8.613-11.244-13.157-17.176
	c6.261-5.925,9.222-12.511,4.293-20.399c-3.647-5.838-9.014-7.263-18.757-5.05C21.2,276.921,18.487,270.247,15.837,263.726z
	 M288.738,312.334c-0.177-2.673-0.197-4.498-0.433-6.294c-2.977-22.597-5.972-45.192-8.99-67.783
	c-6.586-49.302-13.232-98.597-19.69-147.916c-0.465-3.548-1.843-4.364-5.068-4.313c-9.664,0.152-19.338,0.263-28.995-0.044
	c-4.087-0.13-5.052,1.61-5.441,5.164c-0.996,9.092-2.315,18.149-3.509,27.22c-3.82,29.031-7.631,58.063-11.465,87.092
	c-3.529,26.719-7.097,53.434-10.62,80.154c-1.144,8.672-2.201,17.356-3.342,26.384c11.365,0,22.092,0,33.138,0
	c2.394-18.346,4.747-36.385,7.087-54.316c6.291,0,11.743,0,17.337,0c0.175,0.815,0.354,1.432,0.435,2.061
	c2.026,15.844,3.955,31.701,6.178,47.517c0.254,1.808,2.083,4.801,3.279,4.85C268.417,312.507,278.22,312.334,288.738,312.334z
	 M183.206,205.495c-0.785-0.303-1.234-0.627-1.685-0.628c-12.326-0.052-24.655-0.167-36.976,0.072
	c-1.08,0.021-2.948,2.363-3.024,3.707c-0.336,5.978,0.146,12.006-0.251,17.977c-0.319,4.798,1.228,6.801,6.086,6.09
	c2.993-0.438,4.597,0.549,4.554,4.047c-0.155,12.492,0.031,24.988-0.114,37.481c-0.061,5.277-3.12,8.23-8.355,8.77
	c-6.932,0.715-9.635-2.313-9.638-11.025c-0.019-47.477-0.022-94.955,0.027-142.432c0.003-2.473,0.191-5.046,0.884-7.397
	c1.307-4.433,4.29-6.987,9.207-6.786c5.745,0.234,9.171,4.505,9.237,11.956c0.089,9.994-0.064,19.992,0.14,29.983
	c0.027,1.348,1.491,3.799,2.345,3.824c9.435,0.276,18.881,0.174,29.466,0.174c-0.602-16.169,0.183-31.94-2.141-47.237
	c-2.379-15.661-13.017-25.554-29.126-28.159c-5.371-0.868-10.957-1.053-16.396-0.729c-16.031,0.953-28.559,10.862-32.867,26.154
	c-1.424,5.055-2.107,10.483-2.124,15.743c-0.157,47.977-0.113,95.954-0.057,143.931c0.005,4.313,0.28,8.654,0.826,12.932
	c1.873,14.666,10.45,25.098,24.744,27.756c8.503,1.581,17.614,1.757,26.197,0.628c15.059-1.981,24.409-11.36,27.825-26.203
	c0.962-4.18,1.379-8.568,1.407-12.865c0.14-20.989,0.069-41.98,0.052-62.97C183.45,208.665,183.289,207.043,183.206,205.495z"/>
<path fill="none" d="M288.738,312.334c-10.518,0-20.321,0.173-30.101-0.223c-1.196-0.048-3.025-3.041-3.279-4.85
	c-2.223-15.816-4.152-31.674-6.178-47.517c-0.08-0.629-0.26-1.246-0.435-2.061c-5.594,0-11.046,0-17.337,0
	c-2.34,17.931-4.693,35.97-7.087,54.316c-11.046,0-21.773,0-33.138,0c1.141-9.028,2.198-17.712,3.342-26.384
	c3.523-26.72,7.091-53.435,10.62-80.154c3.834-29.029,7.645-58.061,11.465-87.092c1.194-9.071,2.513-18.128,3.509-27.22
	c0.389-3.554,1.354-5.294,5.441-5.164c9.657,0.307,19.331,0.196,28.995,0.044c3.226-0.051,4.604,0.765,5.068,4.313
	c6.458,49.319,13.104,98.613,19.69,147.916c3.018,22.592,6.012,45.186,8.99,67.783C288.541,307.836,288.561,309.661,288.738,312.334
	z"/>
<path fill="none" d="M183.206,205.495c0.083,1.548,0.244,3.17,0.246,4.792c0.017,20.99,0.087,41.981-0.052,62.97
	c-0.029,4.297-0.445,8.685-1.407,12.865c-3.416,14.843-12.767,24.223-27.825,26.203c-8.583,1.129-17.694,0.953-26.197-0.628
	c-14.295-2.658-22.872-13.09-24.744-27.756c-0.546-4.277-0.821-8.619-0.826-12.932c-0.056-47.977-0.1-95.955,0.057-143.931
	c0.017-5.261,0.7-10.688,2.124-15.743c4.308-15.292,16.835-25.201,32.867-26.154c5.439-0.323,11.025-0.139,16.396,0.729
	c16.109,2.605,26.747,12.499,29.126,28.159c2.324,15.298,1.539,31.068,2.141,47.237c-10.585,0-20.031,0.103-29.466-0.174
	c-0.854-0.025-2.318-2.476-2.345-3.824c-0.204-9.991-0.051-19.989-0.14-29.983c-0.067-7.45-3.492-11.721-9.237-11.956
	c-4.916-0.201-7.9,2.353-9.207,6.786c-0.693,2.352-0.882,4.924-0.884,7.397c-0.049,47.477-0.046,94.955-0.027,142.432
	c0.003,8.712,2.706,11.74,9.638,11.025c5.236-0.54,8.294-3.493,8.355-8.77c0.144-12.492-0.042-24.989,0.114-37.481
	c0.043-3.498-1.56-4.485-4.554-4.047c-4.858,0.711-6.405-1.292-6.086-6.09c0.397-5.971-0.085-11.999,0.251-17.977
	c0.076-1.344,1.944-3.686,3.024-3.707c12.321-0.24,24.65-0.124,36.976-0.072C181.971,204.869,182.42,205.192,183.206,205.495z"/>
<circle fill="#D0D0D0" cx="240.034" cy="221.909" r="11.5"/>
</svg>
