<?xml version="1.0" encoding="utf-8"?>
<!-- Generator: Adobe Illustrator 17.0.0, SVG Export Plug-In . SVG Version: 6.00 Build 0)  -->
<!DOCTYPE svg PUBLIC "-//W3C//DTD SVG 1.1//EN" "http://www.w3.org/Graphics/SVG/1.1/DTD/svg11.dtd">
<svg version="1.1" id="Layer_1" xmlns="http://www.w3.org/2000/svg" xmlns:xlink="http://www.w3.org/1999/xlink" x="0px" y="0px"
	 width="112px" height="115px" viewBox="0 0 112 115" enable-background="new 0 0 112 115" xml:space="preserve">
<g>
	<circle fill="#FFFFFF" cx="55.932" cy="36.28" r="5.342"/>
	<path fill="#FFFFFF" d="M55.465,6.146c-28.57,0-51.73,23.16-51.73,51.73c0,28.57,23.16,51.73,51.73,51.73s51.73-23.16,51.73-51.73
		C107.195,29.306,84.035,6.146,55.465,6.146z M55.932,21.747c8.226,0,14.895,6.669,14.895,14.894
		c0,12.232-11.714,13.525-14.895,32.129c-3.18-18.604-14.895-19.897-14.895-32.129C41.037,28.416,47.706,21.747,55.932,21.747z
		 M71.694,77.85l-15.729,6.997L40.346,77.85l-18.505,6.997l11.346-22.578l12.657-5.506c0.911,1.318,1.779,2.753,2.554,4.406
		c-2.754,1.179-0.425,0.172-11.532,4.997l-4.723,9.399l7.797-2.949l4.534-8.09l-1.833,8.789l11.979,5.374l1.343-6.057l1.511,6.113
		l12.035-5.43l-1.84-9.041l4.569,8.414l8.608,3.115l-4.834-9.62l-12.426-5.276c0.784-1.622,1.678-3.072,2.591-4.373l13.506,5.734
		l11.346,22.578L71.694,77.85z"/>
</g>
</svg>
