<?xml version="1.0" encoding="utf-8"?>
<!-- Generator: Adobe Illustrator 17.0.0, SVG Export Plug-In . SVG Version: 6.00 Build 0)  -->
<!DOCTYPE svg PUBLIC "-//W3C//DTD SVG 1.1//EN" "http://www.w3.org/Graphics/SVG/1.1/DTD/svg11.dtd">
<svg version="1.1" id="Layer_1" xmlns="http://www.w3.org/2000/svg" xmlns:xlink="http://www.w3.org/1999/xlink" x="0px" y="0px"
	 width="112px" height="115px" viewBox="0 0 112 115" enable-background="new 0 0 112 115" xml:space="preserve">
<path fill="none" stroke="#FFFFFF" stroke-width="3" stroke-miterlimit="10" stroke-dasharray="5,3" d="M87.047,37.159"/>
<g>
	<polygon fill="#FFFFFF" points="42.853,56.793 43.654,60.765 45.341,57.078 49.367,57.546 46.384,54.802 48.072,51.116 
		44.541,53.107 41.557,50.362 42.358,54.336 38.826,56.325 	"/>
	<path fill="#FFFFFF" d="M34.798,77.507l44.218-24.915c-0.583-2.697,0.209-5.535,2.106-7.542l-8.817-15.647
		c-2.736,0.592-5.618-0.233-7.626-2.186l-44.16,24.882c0.639,2.767-0.18,5.699-2.159,7.736l8.785,15.59
		C29.875,74.796,32.765,75.585,34.798,77.507z M27.598,74.449l-8.167-14.494c1.707-2.041,2.471-4.776,2.066-7.403l43.063-24.265
		c2.023,1.706,4.67,2.461,7.287,2.086l8.208,14.565c-1.649,2.011-2.379,4.622-2.009,7.197L34.911,76.44
		C32.867,74.761,30.212,74.04,27.598,74.449z"/>
	<polygon fill="#FFFFFF" points="35.286,61.053 36.972,57.368 33.442,59.359 30.458,56.615 31.259,60.589 27.727,62.578 
		31.753,63.046 32.556,67.017 34.243,63.33 38.27,63.799 	"/>
	<polygon fill="#FFFFFF" points="65.047,44.285 65.848,48.259 67.535,44.573 71.56,45.04 68.579,42.294 70.265,38.609 
		66.734,40.598 63.751,37.855 64.551,41.83 61.021,43.819 	"/>
	<polygon fill="#FFFFFF" points="53.948,50.539 54.749,54.512 56.437,50.826 60.464,51.292 57.478,48.548 59.168,44.862 
		55.635,46.852 52.652,44.109 53.453,48.083 49.921,50.073 	"/>
	<path fill="#FFFFFF" d="M55.938,6.618c-28.57,0-51.73,23.16-51.73,51.73s23.16,51.73,51.73,51.73s51.73-23.16,51.73-51.73
		S84.507,6.618,55.938,6.618z M26.035,78.508L15.149,59.187c0.031-0.018,0.064-0.034,0.097-0.052
		c2.845-1.603,3.851-5.208,2.248-8.052c-0.018-0.033-0.037-0.063-0.056-0.095l47.888-26.982c0.017,0.03,0.035,0.063,0.052,0.096
		c1.602,2.844,5.207,3.85,8.05,2.247l10.883,19.318c-2.844,1.602-3.849,5.207-2.246,8.052L34.182,80.702
		c-1.603-2.845-5.209-3.852-8.052-2.251C26.097,78.468,26.068,78.49,26.035,78.508z M82.815,53h1.254c0.926,3,2.93,4.923,4.93,5.881
		v16.723C87,76.543,85.053,78,84.113,81H35.41l19.121-10.831l1.94,1.38l-0.687-2.131l5.923-3.341l2.196,1.593l-1.252,3.851
		l3.279-2.381l3.281,2.38l-1.254-3.995L71.237,65h-4.053l-0.632-1.802l16.557-9.503L82.815,53z M63.099,65.284l1.932-1.088
		l-0.353,1.088H63.099z M86.838,84H31.876c0-3-1.722-4.742-4.101-5.508c0.409-0.105,0.829-0.098,1.251-0.098
		c1.858,0,3.579,1.036,4.49,2.653l0.376,0.68l0.07,0.089C33.968,81.837,33.976,81,33.981,82h50.75C85.549,79,88,77.04,90,76.222
		v-17.96C88,57.431,85.492,55,84.699,52h-2.305c-0.301,0-0.387-1-0.276-2h4.722c0,0,0.124,0.141,0.124,0.176
		c0,3.265,2.036,5.981,6.036,5.981v22.173C89,78.331,86.838,81,86.838,84z"/>
	<polygon fill="#FFFFFF" points="75.389,71.521 78.667,69.14 81.947,71.521 80.695,67.524 83.973,65 79.921,65 78.667,61.145 
		77.416,65 73.362,65 76.641,67.524 	"/>
	<polygon fill="#00D2FF" points="65.031,64.196 63.099,65.284 64.679,65.284 	"/>
</g>
<path fill="none" stroke="#FF0000" stroke-miterlimit="10" d="M66.504,65.493"/>
</svg>
