<?xml version="1.0" encoding="utf-8"?>
<!-- Generator: Adobe Illustrator 17.0.0, SVG Export Plug-In . SVG Version: 6.00 Build 0)  -->
<!DOCTYPE svg PUBLIC "-//W3C//DTD SVG 1.1//EN" "http://www.w3.org/Graphics/SVG/1.1/DTD/svg11.dtd">
<svg version="1.1" id="Layer_1" xmlns="http://www.w3.org/2000/svg" xmlns:xlink="http://www.w3.org/1999/xlink" x="0px" y="0px"
	 width="681.116px" height="399.233px" viewBox="0 0 681.116 399.233" enable-background="new 0 0 681.116 399.233"
	 xml:space="preserve">
<line fill="none" stroke="#FFFFFF" stroke-width="2" stroke-miterlimit="10" stroke-dasharray="5,3" x1="339.083" y1="207.252" x2="339.083" y2="141.252"/>
<line fill="none" stroke="#FFFFFF" stroke-width="2" stroke-miterlimit="10" stroke-dasharray="5,3" x1="337.081" y1="91.511" x2="590.115" y2="207.537"/>
<line fill="none" stroke="#FFFFFF" stroke-width="2" stroke-miterlimit="10" stroke-dasharray="5,3" x1="338.315" y1="90.277" x2="100.092" y2="211.24"/>
<path fill="none" stroke="#FFFFFF" stroke-width="3" stroke-miterlimit="10" stroke-dasharray="5,3" d="M121.047,231.159"/>
<path fill="none" stroke="#FFFFFF" stroke-width="3" stroke-miterlimit="10" stroke-dasharray="5,3" d="M341.083,86.252"/>
<circle fill="#FFFFFF" cx="341.083" cy="86.252" r="80"/>
<path id="twitter-icon" fill="#00D2FF" d="M394.537,57.408c-3.659,1.623-7.592,2.72-11.719,3.213
	c4.212-2.525,7.448-6.524,8.971-11.288c-3.943,2.338-8.309,4.036-12.957,4.951c-3.722-3.966-9.025-6.443-14.893-6.443
	c-13.17,0-22.852,12.291-19.876,25.053c-16.958-0.851-31.993-8.974-42.056-21.318c-5.345,9.169-2.772,21.168,6.314,27.241
	c-3.344-0.106-6.491-1.024-9.242-2.552c-0.221,9.453,6.553,18.293,16.365,20.265c-2.872,0.781-6.017,0.96-9.214,0.349
	c2.596,8.106,10.132,14.005,19.06,14.17c-8.578,6.723-19.383,9.725-30.208,8.449c9.03,5.789,19.755,9.167,31.277,9.167
	c37.882,0,59.285-31.997,57.995-60.695C388.343,65.094,391.802,61.5,394.537,57.408z"/>
<g>
	<circle fill="#FFFFFF" cx="340.932" cy="231.28" r="5.342"/>
	<path fill="#FFFFFF" d="M340.465,201.146c-28.57,0-51.73,23.16-51.73,51.73c0,28.57,23.16,51.73,51.73,51.73
		s51.73-23.16,51.73-51.73C392.195,224.306,369.035,201.146,340.465,201.146z M340.932,216.747c8.226,0,14.895,6.669,14.895,14.894
		c0,12.232-11.714,13.525-14.895,32.129c-3.18-18.604-14.895-19.897-14.895-32.129C326.036,223.416,332.706,216.747,340.932,216.747
		z M356.694,272.85l-15.729,6.997l-15.618-6.997l-18.505,6.997l11.346-22.578l12.657-5.506c0.911,1.318,1.779,2.753,2.554,4.406
		c-2.754,1.179-0.425,0.172-11.532,4.997l-4.723,9.399l7.797-2.949l4.534-8.09l-1.833,8.789l11.979,5.374l1.343-6.057l1.511,6.113
		l12.035-5.43l-1.84-9.041l4.569,8.414l8.608,3.115l-4.834-9.62l-12.426-5.276c0.784-1.622,1.678-3.072,2.591-4.373l13.506,5.734
		l11.346,22.578L356.694,272.85z"/>
</g>
<g>
	<polygon fill="#FFFFFF" points="76.853,250.793 77.654,254.765 79.341,251.078 83.367,251.546 80.384,248.802 82.072,245.116 
		78.541,247.107 75.557,244.362 76.358,248.336 72.826,250.325 	"/>
	<path fill="#FFFFFF" d="M68.798,271.507l44.218-24.915c-0.583-2.697,0.209-5.535,2.106-7.542l-8.817-15.647
		c-2.736,0.592-5.618-0.233-7.626-2.186l-44.16,24.882c0.639,2.767-0.18,5.699-2.159,7.736l8.785,15.59
		C63.875,268.796,66.765,269.585,68.798,271.507z M61.598,268.449l-8.167-14.494c1.707-2.041,2.471-4.776,2.066-7.403l43.063-24.265
		c2.023,1.706,4.67,2.461,7.287,2.086l8.208,14.565c-1.649,2.011-2.379,4.622-2.009,7.197L68.911,270.44
		C66.867,268.761,64.212,268.04,61.598,268.449z"/>
	<polygon fill="#FFFFFF" points="69.286,255.053 70.972,251.368 67.442,253.359 64.458,250.615 65.259,254.589 61.727,256.578 
		65.753,257.046 66.556,261.017 68.243,257.33 72.27,257.799 	"/>
	<polygon fill="#FFFFFF" points="99.047,238.285 99.848,242.259 101.535,238.573 105.56,239.04 102.579,236.294 104.265,232.609 
		100.734,234.598 97.751,231.855 98.551,235.83 95.021,237.819 	"/>
	<polygon fill="#FFFFFF" points="87.948,244.539 88.749,248.512 90.437,244.826 94.464,245.292 91.478,242.548 93.168,238.862 
		89.635,240.852 86.652,238.109 87.453,242.083 83.921,244.074 	"/>
	<path fill="#FFFFFF" d="M89.938,200.618c-28.57,0-51.73,23.16-51.73,51.73s23.16,51.73,51.73,51.73s51.73-23.16,51.73-51.73
		S118.507,200.618,89.938,200.618z M60.035,272.508l-10.887-19.321c0.031-0.018,0.064-0.034,0.097-0.052
		c2.845-1.603,3.851-5.208,2.248-8.052c-0.018-0.033-0.037-0.063-0.056-0.095l47.888-26.982c0.017,0.03,0.035,0.063,0.052,0.096
		c1.602,2.844,5.207,3.85,8.05,2.247l10.883,19.318c-2.844,1.602-3.849,5.207-2.246,8.052l-47.885,26.981
		c-1.603-2.845-5.209-3.852-8.052-2.251C60.097,272.468,60.068,272.49,60.035,272.508z M116.815,247.252h1.254
		c0.926,3,3.014,4.671,5.014,5.629v16.723c-2,0.939-4.03,2.647-4.971,5.647H69.41l19.121-10.957l1.94,1.317l-0.687-2.162
		l5.923-3.357l2.196,1.585l-1.252,3.847l3.279-2.383l3.281,2.379l-1.254-3.87l3.28-2.399h-4.053l-0.632-1.928l16.557-9.44
		L116.815,247.252z M97.099,259.284l1.932-1.088l-0.353,1.088H97.099z M120.838,278.252H65.876c0-3-1.722-4.868-4.101-5.634
		c0.409-0.105,0.829-0.161,1.251-0.161c1.858,0,3.579,1.005,4.49,2.622l0.376,0.664l0.07,0.207c0.006,0.02,0.014-0.698,0.019,0.302
		h50.75c0.818-3,3.352-5.212,5.352-6.03v-17.96c-2-0.831-4.591-3.01-5.385-6.01h-2.305c-0.301,0-0.387-1-0.276-2h4.722
		c0,0,0.166,0.015,0.166,0.05c0,3.265,2.077,5.855,6.077,5.855v22.173C123.083,272.331,120.838,275.252,120.838,278.252z"/>
	<polygon fill="#FFFFFF" points="109.389,265.521 112.667,263.14 115.947,265.521 114.695,261.65 117.973,259.252 113.921,259.252 
		112.667,255.396 111.416,259.252 107.362,259.252 110.641,261.65 	"/>
	<polygon fill="#00D2FF" points="99.031,258.196 97.099,259.284 98.679,259.284 	"/>
</g>
<g>
	<path fill="#FFFFFF" d="M587.083,274.252h49v-33h-49V274.252z M620.083,247.252h9v9h-9V247.252z M620.083,260.252h9v8h-9V260.252z
		 M607.083,247.252h9v9h-9V247.252z M607.083,260.252h9v8h-9V260.252z M594.083,247.252h9v9h-9V247.252z M594.083,260.252h9v8h-9
		V260.252z"/>
	<path fill="#FFFFFF" d="M610.817,200.987c-28.569,0-51.73,23.16-51.73,51.73c0,28.569,23.16,51.73,51.73,51.73
		c28.57,0,51.73-23.16,51.73-51.73C662.547,224.147,639.387,200.987,610.817,200.987z M627.083,222.528c0-1.48,1.02-2.681,2.5-2.681
		s2.5,1.2,2.5,2.681v6.746c0,1.48-1.019,2.681-2.5,2.681s-2.5-1.2-2.5-2.681V222.528z M591.083,222.516
		c0-1.48,1.019-2.681,2.5-2.681c1.48,0,2.5,1.2,2.5,2.681v6.746c0,1.48-1.02,2.681-2.5,2.681c-1.481,0-2.5-1.2-2.5-2.681V222.516z
		 M642.083,279.252h-61v-52h6v1.913c0,3.265,2.735,5.921,6,5.921c3.265,0,6-2.656,6-5.921v-1.913h25v1.925
		c0,3.265,2.235,5.921,5.5,5.921c3.265,0,5.5-2.656,5.5-5.921v-1.925h7V279.252z"/>
</g>
<path fill="none" stroke="#FF0000" stroke-miterlimit="10" d="M100.504,259.493"/>
</svg>
