<?xml version="1.0" encoding="utf-8"?>
<!-- Generator: Adobe Illustrator 17.0.0, SVG Export Plug-In . SVG Version: 6.00 Build 0)  -->
<!DOCTYPE svg PUBLIC "-//W3C//DTD SVG 1.1//EN" "http://www.w3.org/Graphics/SVG/1.1/DTD/svg11.dtd">
<svg version="1.1" id="Layer_1" xmlns="http://www.w3.org/2000/svg" xmlns:xlink="http://www.w3.org/1999/xlink" x="0px" y="0px"
	 width="106px" height="93px" viewBox="0 0 106 93" enable-background="new 0 0 106 93" xml:space="preserve">
<path id="twitter-icon" fill="#888888" d="M104.537,17.408c-3.659,1.623-7.592,2.72-11.719,3.213
	c4.212-2.525,7.448-6.524,8.971-11.288c-3.943,2.338-8.309,4.036-12.957,4.951c-3.722-3.966-9.025-6.443-14.893-6.443
	c-13.17,0-22.852,12.291-19.876,25.053c-16.958-0.851-31.993-8.974-42.056-21.318c-5.345,9.169-2.772,21.168,6.314,27.241
	c-3.344-0.106-6.491-1.024-9.242-2.552c-0.221,9.453,6.553,18.293,16.365,20.265c-2.872,0.781-6.017,0.96-9.214,0.349
	c2.596,8.106,10.132,14.005,19.06,14.17c-8.578,6.723-19.383,9.725-30.208,8.449c9.03,5.789,19.755,9.167,31.277,9.167
	c37.882,0,59.285-31.997,57.995-60.695C98.343,25.094,101.802,21.5,104.537,17.408z"/>
</svg>
