<?xml version="1.0" encoding="utf-8"?>
<!-- Generator: Adobe Illustrator 17.0.0, SVG Export Plug-In . SVG Version: 6.00 Build 0)  -->
<!DOCTYPE svg PUBLIC "-//W3C//DTD SVG 1.1//EN" "http://www.w3.org/Graphics/SVG/1.1/DTD/svg11.dtd">
<svg version="1.1" id="Layer_1" xmlns="http://www.w3.org/2000/svg" xmlns:xlink="http://www.w3.org/1999/xlink" x="0px" y="0px"
	 width="215px" height="215px" viewBox="0 0 215 215" enable-background="new 0 0 215 215" xml:space="preserve">
<path fill="#FFFFFF" d="M-20,236c0-85.333,0-170.667,0-256c85.333,0,170.667,0,256,0c0,85.333,0,170.667,0,256
	C150.667,236,65.333,236-20,236z M211.17,108.351C211.168,51.248,165.322,5.184,108.475,5.168
	C51.489,5.151,5.203,51.174,5.168,107.888c-0.036,57.345,45.815,103.275,103.098,103.279
	C165.43,211.171,211.172,165.468,211.17,108.351z"/>
<path fill="#D1D1D1" d="M211.17,108.351c0.002,57.117-45.74,102.82-102.904,102.816C50.982,211.164,5.132,165.233,5.168,107.888
	C5.203,51.174,51.489,5.151,108.475,5.168C165.322,5.184,211.168,51.248,211.17,108.351z M57.783,110.435
	c-6.138,0-13.465,0-20.792,0c7.89,1.183,15.905-0.638,23.359,2.866c-7.28,0.717-14.561,1.434-21.841,2.151
	c6.862,0.463,13.609-0.143,20.366-0.335c1.469-0.042,3.503,1.016,4.386,2.22c5.165,7.043,12.121,11.287,20.335,13.666
	c3.553,1.029,7.191,1.766,10.614,2.593c-1.673,3.065-2.994,5.928-4.747,8.494c-0.758,1.11-2.344,2.136-3.665,2.3
	c-7.224,0.897-13.359-1.274-18.441-6.707c-3.151-3.368-6.69-6.468-11.558-6.556c3.001,4.659,6.056,8.981,8.67,13.556
	c4.093,7.164,9.807,11.128,18.303,10.506c2.077-0.152,4.175-0.023,5.934-0.023c0,8.104,0,15.406,0,22.713
	c6.776-0.001,9.276-2.382,9.292-9.291c0.014-5.664-0.046-11.328,0.038-16.991c0.022-1.448,0.466-2.89,0.717-4.334
	c0.303,0.051,0.605,0.103,0.908,0.154c0,10.287,0,20.573,0,30.859c8.159-0.179,9.625-1.611,9.64-9.523
	c0.012-6.164-0.029-12.328,0.04-18.49c0.012-1.067,0.454-2.13,0.698-3.194c0.484,0.06,0.967,0.12,1.451,0.18
	c0,7.118-0.047,14.237,0.013,21.355c0.062,7.441,2.359,9.616,9.344,9.564c0-10.265,0-20.526,0-30.787
	c0.547-0.009,1.094-0.018,1.641-0.027c0,6.73-0.016,13.46,0.004,20.19c0.024,7.699,3.007,10.255,9.826,9.336
	c-0.388-3.915-0.782-7.76-1.147-11.608c-0.983-10.368,2.866-21.34-4.285-31.01c1.154-0.357,1.927-0.669,2.73-0.834
	c11.123-2.282,20.868-6.691,27.193-16.832c0.632-1.013,2.79-1.575,4.204-1.514c6.759,0.293,13.505,0.873,20.255,1.35
	c0.038-0.307,0.077-0.613,0.115-0.92c-7.528-0.761-15.056-1.522-22.584-2.283c-0.001-0.501-0.001-1.002-0.002-1.503
	c7.86-1.29,15.895-0.425,23.86-1.501c-7.529,0-15.058,0-22.612,0c0-1.178-0.086-1.692,0.013-2.167
	c2.767-13.326,1.143-25.782-6.945-37.121c-0.931-1.305-0.877-3.395-1.05-5.143c-0.547-5.528-0.986-11.067-1.619-18.367
	c-7.713,2.973-13.929,5.477-20.233,7.738c-2.038,0.731-4.303,1.131-6.469,1.154c-10.108,0.11-20.219,0.099-30.327-0.023
	c-2.17-0.026-4.595-0.185-6.45-1.152c-6.238-3.252-12.546-5.981-20.97-6.127c-0.212,6.16-0.305,12.048-0.674,17.918
	c-0.143,2.28-0.652,4.616-1.447,6.759c-1.886,5.085-5.048,9.918-5.839,15.133C57.007,95.59,57.783,102.625,57.783,110.435z"/>
<path fill="none" d="M57.783,110.435c0-7.81-0.776-14.845,0.25-21.605c0.792-5.216,3.953-10.048,5.839-15.133
	c0.795-2.143,1.304-4.479,1.447-6.759c0.369-5.87,0.461-11.758,0.674-17.918c8.425,0.146,14.732,2.875,20.97,6.127
	c1.855,0.967,4.28,1.126,6.45,1.152c10.108,0.122,20.219,0.133,30.327,0.023c2.167-0.024,4.431-0.423,6.469-1.154
	c6.304-2.261,12.52-4.765,20.233-7.738c0.634,7.3,1.072,12.839,1.619,18.367c0.173,1.749,0.119,3.838,1.05,5.143
	c8.088,11.339,9.712,23.795,6.945,37.121c-0.099,0.475-0.013,0.989-0.013,2.167c7.554,0,15.083,0,22.612,0
	c-7.965,1.077-16,0.211-23.86,1.501c0.001,0.501,0.001,1.002,0.002,1.503c7.528,0.761,15.056,1.522,22.584,2.283
	c-0.038,0.307-0.077,0.613-0.115,0.92c-6.751-0.478-13.497-1.058-20.255-1.35c-1.414-0.061-3.572,0.501-4.204,1.514
	c-6.325,10.141-16.07,14.55-27.193,16.832c-0.803,0.165-1.576,0.477-2.73,0.834c7.151,9.67,3.301,20.641,4.285,31.01
	c0.365,3.848,0.759,7.692,1.147,11.608c-6.819,0.92-9.802-1.637-9.826-9.336c-0.021-6.73-0.004-13.46-0.004-20.19
	c-0.547,0.009-1.094,0.018-1.641,0.027c0,10.261,0,20.521,0,30.787c-6.986,0.051-9.282-2.124-9.344-9.564
	c-0.06-7.118-0.013-14.237-0.013-21.355c-0.484-0.06-0.967-0.12-1.451-0.18c-0.243,1.065-0.686,2.127-0.698,3.194
	c-0.069,6.163-0.029,12.327-0.04,18.49c-0.015,7.912-1.481,9.343-9.64,9.523c0-10.285,0-20.572,0-30.859
	c-0.303-0.051-0.605-0.103-0.908-0.154c-0.25,1.445-0.695,2.886-0.717,4.334c-0.084,5.663-0.024,11.327-0.038,16.991
	c-0.017,6.909-2.516,9.29-9.292,9.291c0-7.308,0-14.61,0-22.713c-1.759,0-3.857-0.13-5.934,0.023
	c-8.496,0.623-14.21-3.341-18.303-10.506c-2.614-4.575-5.669-8.897-8.67-13.556c4.868,0.088,8.407,3.188,11.558,6.556
	c5.081,5.433,11.217,7.603,18.441,6.707c1.322-0.164,2.907-1.19,3.665-2.3c1.754-2.567,3.075-5.429,4.747-8.494
	c-3.423-0.827-7.061-1.564-10.614-2.593c-8.214-2.379-15.17-6.623-20.335-13.666c-0.883-1.204-2.917-2.262-4.386-2.22
	c-6.758,0.192-13.504,0.798-20.366,0.335c7.28-0.717,14.561-1.434,21.841-2.151c-7.453-3.505-15.469-1.683-23.359-2.866
	C44.318,110.435,51.645,110.435,57.783,110.435z"/>
</svg>
