<?xml version="1.0" encoding="utf-8"?>
<!-- Generator: Adobe Illustrator 17.0.0, SVG Export Plug-In . SVG Version: 6.00 Build 0)  -->
<!DOCTYPE svg PUBLIC "-//W3C//DTD SVG 1.1//EN" "http://www.w3.org/Graphics/SVG/1.1/DTD/svg11.dtd">
<svg version="1.1" id="Layer_1" xmlns="http://www.w3.org/2000/svg" xmlns:xlink="http://www.w3.org/1999/xlink" x="0px" y="0px"
	 width="406.251px" height="262.226px" viewBox="0 0 406.251 262.226" enable-background="new 0 0 406.251 262.226"
	 xml:space="preserve">
<path opacity="0.6" fill="#FFFFFF" enable-background="new    " d="M115.433,223.067H91.974l-19.06-119.926h-0.488L53.61,223.067
	H30.151L4.249,38.246h26.39l12.463,117.33h0.488l19.55-117.33H82.2l20.282,120.186h0.489l11.973-120.186h26.392L115.433,223.067z"/>
<path opacity="0.6" fill="#FFFFFF" enable-background="new    " d="M156.972,38.246h36.899c14.173,0,25.004,4.199,32.5,12.59
	c7.491,8.396,11.24,20.118,11.24,35.173v86.44c0,17.307-3.951,30.071-11.852,38.287c-7.902,8.222-19.266,12.33-34.089,12.33h-34.699
	V38.246H156.972z M181.898,198.146h11.485c7.002,0,11.974-1.855,14.906-5.579c2.933-3.72,4.4-9.56,4.4-17.522V86.009
	c0-7.268-1.387-12.889-4.155-16.872c-2.771-3.98-7.819-5.97-15.15-5.97h-11.485v134.979H181.898z"/>
<path opacity="0.6" fill="#FFFFFF" enable-background="new    " d="M397.307,13.135v15.786H3.906V13.135H397.307z"/>
<path opacity="0.6" fill="#FFFFFF" enable-background="new    " d="M257.149,37.803h24.925v184.821h-24.925V37.803z"/>
<path opacity="0.6" fill="#FFFFFF" enable-background="new    " d="M398.331,231.851v15.786H4.93v-15.786H398.331z"/>
<g opacity="0.6">
	<path fill="none" d="M388.214,142.52c-1.596-1.907-3.6-3.428-6.014-4.597c-2.411-1.168-5.251-1.718-8.519-1.718h-41.869
		c-3.19,0-6.013,0.55-8.463,1.718s-4.472,2.673-6.068,4.58c-1.596,1.909-2.802,4.05-3.619,6.424
		c-0.816,2.377-1.226,4.779-1.226,7.191c0,2.415,0.409,4.817,1.226,7.191c0.817,2.376,2.023,4.533,3.619,6.44
		c1.597,1.908,3.618,3.475,6.068,4.643c2.45,1.168,5.272,1.812,8.463,1.812h41.869c3.268,0,6.107-0.644,8.519-1.812
		c2.414-1.168,4.418-2.765,6.014-4.673c1.598-1.907,2.803-4.048,3.619-6.424c0.815-2.374,1.225-4.766,1.225-7.181
		c0-2.412-0.409-4.802-1.225-7.179C391.017,146.562,389.812,144.429,388.214,142.52z M379.751,161.793
		c-1.298,1.598-3.321,2.412-6.069,2.412h-41.869c-2.745,0-4.769-0.795-6.068-2.392c-1.299-1.595-1.949-3.481-1.949-5.663
		c0-2.179,0.65-4.029,1.949-5.627c1.3-1.595,3.323-2.318,6.068-2.318h41.869c2.748,0,4.771,0.727,6.069,2.322
		c1.3,1.598,1.948,3.414,1.948,5.593C381.7,158.301,381.051,160.199,379.751,161.793z"/>
	<polygon fill="none" points="392.134,114.205 345.134,114.205 345.134,113.945 392.134,95.724 392.134,84.205 313.134,84.205 
		313.134,96.205 361.134,96.205 361.134,96.658 313.134,114.646 313.134,126.205 392.134,126.205 	"/>
	<path fill="none" d="M389.105,217.202c1.448-1.869,2.469-3.97,3.062-6.306c0.593-2.336,0.891-4.628,0.891-6.888
		c0-2.646-0.501-5.111-1.503-7.409c-1.002-2.296-2.339-4.286-4.009-6c-1.671-1.712-3.619-3.023-5.847-3.998
		c-2.227-0.973-4.565-1.397-7.015-1.397h-4.551v12h3.548c1.56,0,2.859,0.143,3.897,0.61c1.041,0.468,1.856,0.981,2.45,1.72
		c0.595,0.741,1.021,1.59,1.28,2.484c0.262,0.896,0.39,1.795,0.39,2.574c0,2.727-0.779,4.737-2.338,5.789
		c-1.56,1.051-3.488,1.824-5.791,1.824h-40.533c-2.672,0-4.88-0.706-6.625-1.681c-1.743-0.973-2.617-3.16-2.617-6.12
		c0-2.258,0.818-3.995,2.45-5.32c1.634-1.323,3.563-1.879,5.79-1.879h4.099v-12h-4.767c-2.745,0-5.289,0.424-7.628,1.397
		c-2.338,0.975-4.343,2.254-6.013,3.966c-1.671,1.714-2.969,3.738-3.897,6.074c-0.928,2.336-1.393,4.867-1.393,7.592
		c0,2.882,0.465,5.51,1.393,7.885c0.929,2.376,2.209,4.42,3.842,6.132c1.634,1.714,3.563,3.037,5.79,3.972
		c1.026,0.431,2.097,0.75,3.202,0.982h4.036h43.651h4.788c1.58-0.301,2.994-0.761,4.231-1.391
		C385.747,220.608,387.658,219.071,389.105,217.202z"/>
	<polygon fill="none" points="392.134,74.205 392.134,62.205 358.134,62.205 358.134,41.205 348.134,41.205 348.134,62.205 
		324.134,62.205 324.134,38.205 313.134,38.205 313.134,74.205 	"/>
	<path fill="#FFFFFF" d="M324.134,38.205v24h24v-21h10v21h34v12h-79v-36h-5v185h18.529c-1.105-0.232-2.175-0.552-3.202-0.982
		c-2.227-0.935-4.156-2.258-5.79-3.972c-1.633-1.712-2.913-3.756-3.842-6.132c-0.928-2.375-1.393-5.003-1.393-7.885
		c0-2.725,0.465-5.256,1.393-7.592c0.929-2.336,2.227-4.36,3.897-6.074c1.67-1.712,3.675-2.992,6.013-3.966
		c2.339-0.973,4.883-1.397,7.628-1.397h4.767v12h-4.099c-2.227,0-4.156,0.556-5.79,1.879c-1.632,1.325-2.45,3.062-2.45,5.32
		c0,2.96,0.874,5.147,2.617,6.12c1.745,0.975,3.953,1.681,6.625,1.681h40.533c2.303,0,4.231-0.773,5.791-1.824
		c1.559-1.052,2.338-3.062,2.338-5.789c0-0.778-0.128-1.677-0.39-2.574c-0.259-0.895-0.686-1.743-1.28-2.484
		c-0.594-0.739-1.409-1.252-2.45-1.72c-1.038-0.467-2.338-0.61-3.897-0.61h-3.548v-12h4.551c2.449,0,4.788,0.424,7.015,1.397
		c2.228,0.975,4.176,2.286,5.847,3.998c1.67,1.714,3.007,3.704,4.009,6c1.002,2.298,1.503,4.763,1.503,7.409
		c0,2.26-0.298,4.552-0.891,6.888c-0.594,2.336-1.614,4.437-3.062,6.306c-1.447,1.869-3.357,3.406-5.734,4.612
		c-1.237,0.629-2.651,1.09-4.231,1.391h16.995v-185H324.134z M313.134,114.646l48-17.988v-0.453h-48v-12h79v11.519l-47,18.222v0.26
		h47v12h-79V114.646z M391.833,163.297c-0.816,2.376-2.021,4.517-3.619,6.424c-1.596,1.908-3.6,3.505-6.014,4.673
		c-2.411,1.168-5.251,1.812-8.519,1.812h-41.869c-3.19,0-6.013-0.644-8.463-1.812s-4.472-2.735-6.068-4.643
		c-1.596-1.907-2.802-4.064-3.619-6.44c-0.816-2.374-1.226-4.776-1.226-7.191c0-2.412,0.409-4.814,1.226-7.191
		c0.817-2.375,2.023-4.515,3.619-6.424c1.597-1.907,3.618-3.412,6.068-4.58c2.45-1.168,5.272-1.718,8.463-1.718h41.869
		c3.268,0,6.107,0.55,8.519,1.718c2.414,1.168,4.418,2.69,6.014,4.597c1.598,1.909,2.803,4.041,3.619,6.416
		c0.815,2.377,1.225,4.767,1.225,7.179C393.058,158.53,392.649,160.923,391.833,163.297z"/>
	<path fill="#FFFFFF" d="M373.682,148.205h-41.869c-2.745,0-4.769,0.723-6.068,2.318c-1.299,1.598-1.949,3.448-1.949,5.627
		c0,2.182,0.65,4.068,1.949,5.663c1.3,1.598,3.323,2.392,6.068,2.392h41.869c2.748,0,4.771-0.814,6.069-2.412
		c1.3-1.595,1.948-3.492,1.948-5.674c0-2.179-0.648-3.995-1.948-5.593C378.453,148.932,376.43,148.205,373.682,148.205z"/>
	<path fill="#FFFFFF" d="M379.139,223.205h-4.788C376.093,223.205,377.687,223.482,379.139,223.205z"/>
	<path fill="#FFFFFF" d="M330.7,223.205h-4.036C327.956,223.477,329.299,223.205,330.7,223.205z"/>
</g>
</svg>
